<svg width="32" height="32" viewBox="0 0 32 32" fill="none" xmlns="http://www.w3.org/2000/svg">
<circle cx="16.0005" cy="16.0004" r="16" fill="#835AFD"/>
<path d="M20.9233 21.5387V20.308C20.9233 19.6551 20.664 19.029 20.2023 18.5674C19.7407 18.1058 19.1146 17.8464 18.4618 17.8464H13.5387C12.8858 17.8464 12.2597 18.1058 11.7981 18.5674C11.3365 19.029 11.0771 19.6551 11.0771 20.308V21.5387" stroke="#F8F8F8" stroke-width="1.5" stroke-linecap="round" stroke-linejoin="round"/>
<path d="M16.0001 15.385C17.3596 15.385 18.4617 14.2829 18.4617 12.9235C18.4617 11.564 17.3596 10.4619 16.0001 10.4619C14.6406 10.4619 13.5386 11.564 13.5386 12.9235C13.5386 14.2829 14.6406 15.385 16.0001 15.385Z" stroke="#F8F8F8" stroke-width="1.5" stroke-linecap="round" stroke-linejoin="round"/>
</svg>
